<?xml version="1.0" standalone="no"?>
<!DOCTYPE svg PUBLIC "-//W3C//DTD SVG 20010904//EN"
 "http://www.w3.org/TR/2001/REC-SVG-20010904/DTD/svg10.dtd">
<svg version="1.0" xmlns="http://www.w3.org/2000/svg"
 width="1000.000000pt" height="1000.000000pt" viewBox="0 0 1000.000000 1000.000000"
 preserveAspectRatio="xMidYMid meet">
<metadata>
Created by potrace 1.14, written by Peter Selinger 2001-2017
</metadata>
<g transform="translate(0.000000,1000.000000) scale(0.100000,-0.100000)"
fill="#000000" stroke="none">
<path d="M0 5000 l0 -5000 5000 0 5000 0 0 5000 0 5000 -5000 0 -5000 0 0
-5000z m6460 2575 l0 -415 -1375 0 -1375 0 0 415 0 415 1375 0 1375 0 0 -415z
m-1105 -1270 c635 -98 1145 -428 1441 -930 176 -301 274 -692 274 -1099 0
-128 -14 -363 -26 -438 l-6 -38 -1510 0 -1510 0 7 -32 c14 -66 47 -155 90
-243 200 -405 637 -595 1276 -555 406 25 753 122 1272 354 l57 26 0 -489 0
-490 -57 -34 c-224 -136 -664 -259 -1103 -308 -171 -20 -585 -17 -740 5 -156
21 -291 48 -405 81 -822 239 -1351 845 -1481 1700 -25 166 -26 531 -1 699 85
568 357 1055 772 1381 279 219 661 373 1025 414 52 6 111 13 130 15 73 9 399
-4 495 -19z"/>
<path d="M4929 5378 c-170 -10 -335 -64 -469 -153 -76 -51 -208 -185 -261
-265 -62 -94 -131 -245 -153 -332 l-6 -28 960 0 960 0 0 29 c0 51 -50 204 -93
285 -86 161 -216 285 -382 366 -168 82 -337 112 -556 98z"/>
</g>
</svg>
