<?xml version="1.0" standalone="no"?>
<!DOCTYPE svg PUBLIC "-//W3C//DTD SVG 20010904//EN"
 "http://www.w3.org/TR/2001/REC-SVG-20010904/DTD/svg10.dtd">
<svg version="1.0" xmlns="http://www.w3.org/2000/svg"
 width="700.000000pt" height="700.000000pt" viewBox="0 0 700.000000 700.000000"
 preserveAspectRatio="xMidYMid meet">
<metadata>
Created by potrace 1.14, written by Peter Selinger 2001-2017
</metadata>
<g transform="translate(0.000000,700.000000) scale(0.100000,-0.100000)"
fill="#000000" stroke="none">
<path d="M1372 3498 l3 -2623 448 -3 447 -2 -1 1802 0 1803 -42 548 c-24 301
-41 550 -38 553 2 2 44 4 93 4 85 0 88 -1 88 -23 0 -13 90 -1067 200 -2344
110 -1276 200 -2326 200 -2332 0 -8 201 -11 743 -11 l743 0 193 2323 c106
1277 195 2337 198 2355 l5 32 89 0 c49 0 89 -1 89 -2 0 -2 -20 -268 -45 -591
l-45 -589 0 -1764 0 -1764 450 0 450 0 0 2625 0 2625 -869 0 -870 0 -6 -52
c-3 -29 -69 -883 -147 -1898 l-142 -1845 -5 -455 -6 -455 -87 -3 -88 -3 1 343
0 343 -153 2013 -153 2012 -872 0 -873 0 2 -2622z"/>
</g>
</svg>
