<svg fill="none" width="194.25" height="109.21" viewBox="0 0 194.25 109.21" xmlns="http://www.w3.org/2000/svg">
<g fill="#ffffff">
    <path d="M54.34,5c22.23,0,37.56,11.53,37.56,29.6,0,9.45-2.62,18.06-16.43,30.85l-1.33,1.24v6.47c0,5.56,2.3,7.78,6.12,7.78s6.08-2.22,6.08-7.78v-17.69h8.98v17.97c0,3.59-.78,6.6-2.24,8.96h1.45v21.82H19.27v-15.7c-.23,0-.45,.02-.69,.02-5.29,0-10.54-1.44-13.58-3.57l2.99-6.76c2.85,1.9,6.91,3.2,10.63,3.2s5.25-1.07,5.25-2.64c0-5.14-18.32-1.39-18.32-13.43,0-5.79,4.7-10.52,14.27-10.52,4.19,0,8.52,.97,11.69,2.83l-2.81,6.81c-3.08-1.67-6.12-2.5-8.93-2.5-3.82,0-5.2,1.3-5.2,2.92,0,4.43,14.57,1.95,17.68,9.89l11.17-10.51v-1.51h-9.9v-7.27h19.22l2.68-2.53c7.73-7.23,8.84-11.67,8.84-15.7,0-6.25-4.14-10-12.43-10-7.04,0-13.39,3.2-17.26,9.45L14.3,25.29C21.62,13.06,35.29,5,54.34,5m2.9,77.4h10.02c-1.23-1.99-1.97-4.43-2.18-7.29l-7.84,7.29M54.34,0C34.52,0,18.78,8.07,10.01,22.72c-.69,1.16-.89,2.55-.54,3.85,.35,1.3,1.21,2.41,2.38,3.07l20.3,11.39c.77,.43,1.61,.64,2.44,.64,1.68,0,3.31-.85,4.26-2.37,2.82-4.56,7.44-7.08,13.01-7.08,7.43,0,7.43,3.38,7.43,5,0,1.97,0,5.27-7.25,12.05l-1.25,1.18h-17.24c-1.21,0-2.32,.43-3.19,1.15-3.18-1.16-6.85-1.8-10.53-1.8-13.31,0-19.27,7.79-19.27,15.52,0,3.8,1.29,7.03,3.77,9.49-.37,.4-.67,.86-.9,1.37l-2.99,6.76c-.97,2.18-.25,4.75,1.7,6.12,3.02,2.12,7.44,3.62,12.14,4.2v10.94c0,2.76,2.24,5,5,5H94.53c2.76,0,5-2.24,5-5v-21.82c0-.57-.09-1.11-.27-1.62,.7-2.22,1.05-4.68,1.05-7.34v-17.97c0-2.76-2.24-5-5-5h-1.72c2.56-5.48,3.31-10.59,3.31-15.87C96.9,13.9,79.8,0,54.34,0h0Zm24.79,68.86c.76-.71,1.5-1.41,2.2-2.1v6.4c0,1.81-.32,2.53-.43,2.72-.09,.03-.29,.07-.65,.07-.39,0-.61-.05-.7-.07-.1-.18-.42-.9-.42-2.71v-4.3h0Z"/>
    <path d="M137.05,5c22.23,0,37.56,11.53,37.56,29.6,0,6.67-1.32,12.93-6.95,20.54,1.18-.21,2.41-.32,3.68-.32,10.31,0,17.91,7.13,17.91,16.86,0,7.75-4.83,13.85-12.02,16v16.53H101.98v-16.32h-.5V55.47h15.24c5.66,0,10.36,1.77,13.55,4.91l7.9-7.43c7.73-7.23,8.84-11.67,8.84-15.7,0-6.25-4.14-10-12.43-10-7.04,0-13.39,3.2-17.26,9.45l-20.3-11.39c7.32-12.23,20.99-20.29,40.05-20.29m34.29,75.94c4.88,0,8.7-3.66,8.7-9.26s-3.82-9.26-8.7-9.26-8.7,3.66-8.7,9.26,3.82,9.26,8.7,9.26m-60.76-2.06l13.38-12.59c-1.57-2.26-4.26-3.51-7.62-3.51h-5.75v16.1m38.02,3.52h8.64c-2.41-2.86-3.81-6.55-3.81-10.72,0-.65,.04-1.29,.11-1.92l-4.94,4.59v8.05M137.05,0c-19.82,0-35.57,8.07-44.34,22.72-.69,1.16-.89,2.55-.54,3.85,.35,1.3,1.21,2.41,2.38,3.07l20.3,11.39c.77,.43,1.61,.64,2.44,.64,1.68,0,3.31-.85,4.26-2.37,2.82-4.56,7.44-7.08,13.01-7.08,7.43,0,7.43,3.38,7.43,5,0,1.97,0,5.27-7.25,12.05l-4.84,4.56c-3.7-2.2-8.24-3.38-13.19-3.38h-15.24c-2.76,0-5,2.24-5,5v32.43c0,.79,.18,1.53,.5,2.19v14.13c0,2.76,2.24,5,5,5h75.26c2.76,0,5-2.24,5-5v-13.13c7.41-3.63,12.02-10.9,12.02-19.4,0-10.81-7.4-19.31-17.88-21.38,2.77-6.01,3.24-11.21,3.24-15.7C179.61,13.9,162.51,0,137.05,0h0Zm34.29,75.94c-2.28,0-3.7-1.63-3.7-4.26s1.42-4.26,3.7-4.26,3.7,1.63,3.7,4.26-1.42,4.26-3.7,4.26h0Z"/>
</g>
<g>
    <g fill="#73bc7a" isolation="isolate">
        <path d="M94.53,82.4v21.82H19.27v-17.23L55.45,52.94c7.73-7.23,8.84-11.67,8.84-15.7,0-6.25-4.14-10-12.43-10-7.04,0-13.39,3.2-17.26,9.45L14.3,25.29C21.62,13.06,35.29,5,54.34,5c22.23,0,37.56,11.53,37.56,29.6,0,9.45-2.62,18.06-16.43,30.85l-18.23,16.95h37.28Z"/>
        <path d="M177.24,82.4v21.82H101.98v-17.23l36.18-34.04c7.73-7.23,8.84-11.67,8.84-15.7,0-6.25-4.14-10-12.43-10-7.04,0-13.39,3.2-17.26,9.45l-20.3-11.39c7.32-12.23,20.99-20.29,40.05-20.29,22.23,0,37.56,11.53,37.56,29.6,0,9.45-2.62,18.06-16.43,30.85l-18.23,16.95h37.28Z"/>
    </g>
    <g fill="#0f0f0f" isolation="isolate">
        <path d="M5,84.97l2.99-6.76c2.85,1.9,6.91,3.2,10.63,3.2s5.25-1.07,5.25-2.64c0-5.14-18.32-1.39-18.32-13.43,0-5.79,4.7-10.52,14.27-10.52,4.19,0,8.52,.97,11.69,2.83l-2.81,6.81c-3.08-1.67-6.12-2.5-8.93-2.5-3.82,0-5.2,1.3-5.2,2.92,0,4.96,18.28,1.25,18.28,13.2,0,5.65-4.7,10.47-14.27,10.47-5.29,0-10.54-1.44-13.58-3.57Z"/>
        <path d="M43.43,62.74h-9.9v-7.27h28.86v7.27h-9.85v25.15h-9.11v-25.15Z"/>
        <path d="M65.02,73.44v-17.97h9.11v17.69c0,5.56,2.3,7.78,6.12,7.78s6.08-2.22,6.08-7.78v-17.69h8.98v17.97c0,9.68-5.62,15.1-15.15,15.1s-15.14-5.42-15.14-15.1Z"/>
        <path d="M101.47,55.47h15.24c10.68,0,18,6.25,18,16.21s-7.32,16.21-18,16.21h-15.24V55.47Zm14.87,25.11c5.48,0,9.16-3.29,9.16-8.89s-3.68-8.89-9.16-8.89h-5.75v17.79h5.75Z"/>
        <path d="M139.49,55.47h9.12v32.43h-9.12V55.47Z"/>
        <path d="M153.44,71.68c0-9.73,7.6-16.86,17.91-16.86s17.91,7.13,17.91,16.86-7.59,16.86-17.91,16.86-17.91-7.13-17.91-16.86Zm26.61,0c0-5.61-3.82-9.26-8.7-9.26s-8.7,3.66-8.7,9.26,3.82,9.26,8.7,9.26,8.7-3.66,8.7-9.26Z"/>
    </g>
</g>
</svg>